<svg xmlns="http://www.w3.org/2000/svg" width="25.197" height="19.726" viewBox="0 0 25.197 19.726"><defs><style>.a{fill:#fff;}</style></defs><path class="a" d="M744.583,284.321a1.06,1.06,0,0,1-1.063-1.056V277.5h0v-.8h0v-1.71h0v-.8h0v-1.412a1.061,1.061,0,0,1,1.063-1.056h17.828a1.061,1.061,0,0,1,1.064,1.056v1.412h0v.8h0v8.276a1.061,1.061,0,0,1-1.064,1.056Zm-.259-1.056a.259.259,0,0,0,.259.257h17.828a.258.258,0,0,0,.259-.257V274.99H744.324v1.71H761.58v.8H744.324Zm18.346-9.075v-1.412a.259.259,0,0,0-.259-.258H744.583a.26.26,0,0,0-.259.258v1.412Zm-11.6,8.48v-.8h4.39v.8Zm-2.59,0v-.8h1.8v.8Zm-3.241-1.32a1.328,1.328,0,1,1,1.328,1.318A1.324,1.324,0,0,1,745.239,281.35Zm.8,0a.524.524,0,1,0,.524-.519A.522.522,0,0,0,746.042,281.35Zm2.437-.52v-.8h4.57v.8Zm-7.042-.942-3.1-8.8a.967.967,0,0,1,.042-.751.98.98,0,0,1,.566-.5L753.9,264.65a.987.987,0,0,1,.757.042.975.975,0,0,1,.5.561l1.935,5.492-.76.263-1.934-5.492a.191.191,0,0,0-.094-.105.188.188,0,0,0-.142-.007l-14.957,5.187a.186.186,0,0,0-.106.094.181.181,0,0,0-.008.141l3.1,8.8a.187.187,0,0,0,.237.113l.38-.131.265.753-.381.131a.975.975,0,0,1-.325.055A.992.992,0,0,1,741.438,279.887ZM741.2,271.5l.759-.264.384,1.088-.76.264Zm1.679-.583.76-.263.383,1.088-.759.264Zm1.68-.582.759-.264.384,1.089-.76.263Zm5.576-.109-.156-.442a1.17,1.17,0,0,1,.051-.906,1.185,1.185,0,0,1,.682-.6l1.133-.393a1.194,1.194,0,0,1,.913.051,1.181,1.181,0,0,1,.609.677l.156.442a1.182,1.182,0,0,1-.733,1.51l-1.133.393a1.2,1.2,0,0,1-1.522-.728Zm1.391.351h0Zm.585-1.943-1.133.393a.386.386,0,0,0-.223.2.381.381,0,0,0-.017.3l.156.442a.393.393,0,0,0,.5.238l1.133-.393a.389.389,0,0,0,.223-.2.381.381,0,0,0,.016-.3l-.155-.442a.391.391,0,0,0-.369-.26A.4.4,0,0,0,752.111,268.632Zm-5.873,1.119.76-.264.383,1.088-.759.264Zm1.68-.582.759-.264.384,1.088-.76.264Z" transform="translate(-738.283 -264.594)"/></svg>